<?xml version="1.0" encoding="UTF-8"?>
<svg xmlns="http://www.w3.org/2000/svg" xmlns:xlink="http://www.w3.org/1999/xlink" width="12pt" height="12pt" viewBox="0 0 12 12" version="1.1">
<g>
<path style=" stroke:none;fill-rule:nonzero;fill:#526278;fill-opacity:1;" d="M 5.101562 1.566406 L 5.699219 1.046875 C 5.949219 0.828125 6.355469 0.828125 6.605469 1.046875 L 11.8125 5.601562 C 12.0625 5.820312 12.0625 6.179688 11.8125 6.394531 L 6.605469 10.953125 C 6.355469 11.171875 5.945312 11.171875 5.699219 10.953125 L 5.101562 10.433594 C 4.847656 10.210938 4.855469 9.847656 5.113281 9.628906 L 8.339844 6.9375 L 0.644531 6.9375 C 0.285156 6.9375 0 6.6875 0 6.375 L 0 5.625 C 0 5.3125 0.285156 5.0625 0.644531 5.0625 L 8.339844 5.0625 L 5.113281 2.371094 C 4.851562 2.152344 4.84375 1.789062 5.101562 1.566406 Z M 5.101562 1.566406 "/>
</g>
</svg>
