<?xml version="1.0" encoding="UTF-8"?>
<svg xmlns="http://www.w3.org/2000/svg" xmlns:xlink="http://www.w3.org/1999/xlink" width="12pt" height="12pt" viewBox="0 0 12 12" version="1.1">
<g id="surface1">
<path style=" stroke:none;fill-rule:nonzero;fill:rgb(0%,0%,0%);fill-opacity:1;" d="M 2.625 7.496094 L 3.375 7.496094 C 3.789062 7.496094 4.125 7.160156 4.125 6.746094 L 4.125 6 C 4.125 5.582031 3.789062 5.25 3.375 5.25 L 2.625 5.25 C 2.210938 5.25 1.875 5.582031 1.875 6 L 1.875 6.746094 C 1.875 7.160156 2.210938 7.496094 2.625 7.496094 Z M 2.625 6 L 3.375 6 L 3.375 6.746094 L 2.625 6.746094 Z M 8.621094 10.496094 L 9.371094 10.496094 C 9.785156 10.496094 10.121094 10.160156 10.121094 9.746094 L 10.121094 8.996094 C 10.121094 8.582031 9.785156 8.246094 9.371094 8.246094 L 8.621094 8.246094 C 8.207031 8.246094 7.871094 8.582031 7.871094 8.996094 L 7.871094 9.746094 C 7.871094 10.160156 8.207031 10.496094 8.621094 10.496094 Z M 8.621094 8.996094 L 9.371094 8.996094 L 9.371094 9.746094 L 8.621094 9.746094 Z M 8.621094 7.496094 L 9.371094 7.496094 C 9.785156 7.496094 10.121094 7.160156 10.121094 6.746094 L 10.121094 6 C 10.121094 5.582031 9.785156 5.25 9.371094 5.25 L 8.621094 5.25 C 8.207031 5.25 7.871094 5.582031 7.871094 6 L 7.871094 6.746094 C 7.871094 7.160156 8.207031 7.496094 8.621094 7.496094 Z M 8.621094 6 L 9.371094 6 L 9.371094 6.746094 L 8.621094 6.746094 Z M 10.121094 0.75 L 8.621094 0.75 L 8.621094 0.375 C 8.621094 0.167969 8.453125 0 8.246094 0 C 8.039062 0 7.871094 0.167969 7.871094 0.375 L 7.871094 0.75 L 4.125 0.75 L 4.125 0.375 C 4.125 0.167969 3.957031 0 3.75 0 C 3.542969 0 3.375 0.167969 3.375 0.375 L 3.375 0.75 L 1.875 0.75 C 1.046875 0.75 0.375 1.421875 0.375 2.25 L 0.375 10.496094 C 0.375 11.324219 1.046875 11.996094 1.875 11.996094 L 10.121094 11.996094 C 10.949219 11.996094 11.621094 11.324219 11.621094 10.496094 L 11.621094 2.25 C 11.621094 1.421875 10.949219 0.75 10.121094 0.75 Z M 10.871094 10.496094 C 10.871094 10.910156 10.535156 11.246094 10.121094 11.246094 L 1.875 11.246094 C 1.460938 11.246094 1.125 10.910156 1.125 10.496094 L 1.125 3.75 L 10.871094 3.75 Z M 10.871094 3 L 1.125 3 L 1.125 2.25 C 1.125 1.835938 1.460938 1.5 1.875 1.5 L 3.375 1.5 L 3.375 1.875 C 3.375 2.082031 3.542969 2.25 3.75 2.25 C 3.957031 2.25 4.125 2.082031 4.125 1.875 L 4.125 1.5 L 7.871094 1.5 L 7.871094 1.875 C 7.871094 2.082031 8.039062 2.25 8.246094 2.25 C 8.453125 2.25 8.621094 2.082031 8.621094 1.875 L 8.621094 1.5 L 10.121094 1.5 C 10.535156 1.5 10.871094 1.835938 10.871094 2.25 Z M 5.625 10.496094 L 6.375 10.496094 C 6.789062 10.496094 7.121094 10.160156 7.121094 9.746094 L 7.121094 8.996094 C 7.121094 8.582031 6.789062 8.246094 6.375 8.246094 L 5.625 8.246094 C 5.210938 8.246094 4.875 8.582031 4.875 8.996094 L 4.875 9.746094 C 4.875 10.160156 5.210938 10.496094 5.625 10.496094 Z M 5.625 8.996094 L 6.375 8.996094 L 6.375 9.746094 L 5.625 9.746094 Z M 5.625 7.496094 L 6.375 7.496094 C 6.789062 7.496094 7.121094 7.160156 7.121094 6.746094 L 7.121094 6 C 7.121094 5.582031 6.789062 5.25 6.375 5.25 L 5.625 5.25 C 5.210938 5.25 4.875 5.582031 4.875 6 L 4.875 6.746094 C 4.875 7.160156 5.210938 7.496094 5.625 7.496094 Z M 5.625 6 L 6.375 6 L 6.375 6.746094 L 5.625 6.746094 Z M 2.625 10.496094 L 3.375 10.496094 C 3.789062 10.496094 4.125 10.160156 4.125 9.746094 L 4.125 8.996094 C 4.125 8.582031 3.789062 8.246094 3.375 8.246094 L 2.625 8.246094 C 2.210938 8.246094 1.875 8.582031 1.875 8.996094 L 1.875 9.746094 C 1.875 10.160156 2.210938 10.496094 2.625 10.496094 Z M 2.625 8.996094 L 3.375 8.996094 L 3.375 9.746094 L 2.625 9.746094 Z M 2.625 8.996094 "/>
</g>
</svg>
