<?xml version="1.0" encoding="UTF-8"?>
<svg xmlns="http://www.w3.org/2000/svg" xmlns:xlink="http://www.w3.org/1999/xlink" width="12pt" height="12pt" viewBox="0 0 12 12" version="1.1">
<g id="surface1">
<path style=" stroke:none;fill-rule:nonzero;fill:rgb(0%,0%,0%);fill-opacity:1;" d="M 6 6 C 7.449219 6 8.625 4.824219 8.625 3.375 C 8.625 1.925781 7.449219 0.75 6 0.75 C 4.550781 0.75 3.375 1.925781 3.375 3.375 C 3.375 4.824219 4.550781 6 6 6 Z M 6 1.5 C 7.035156 1.5 7.875 2.339844 7.875 3.375 C 7.875 4.410156 7.035156 5.25 6 5.25 C 4.964844 5.25 4.125 4.410156 4.125 3.375 C 4.125 2.339844 4.964844 1.5 6 1.5 Z M 6 1.5 "/>
<path style=" stroke:none;fill-rule:nonzero;fill:rgb(0%,0%,0%);fill-opacity:1;" d="M 6.375 6.75 L 5.625 6.75 C 3.347656 6.75 1.5 8.597656 1.5 10.875 C 1.5 11.082031 1.667969 11.25 1.875 11.25 L 10.125 11.25 C 10.332031 11.25 10.5 11.082031 10.5 10.875 C 10.5 8.597656 8.652344 6.75 6.375 6.75 Z M 2.273438 10.5 C 2.464844 8.792969 3.90625 7.5 5.625 7.5 L 6.375 7.5 C 8.09375 7.5 9.535156 8.792969 9.726562 10.5 Z M 2.273438 10.5 "/>
</g>
</svg>
